<?xml version="1.0"?>
<svg xmlns="http://www.w3.org/2000/svg" height="512px" viewBox="-110 1 511 511.99999" width="512px"><path d="m98 80h25.492188c-1.96875 5.578125-2.992188 11.480469-2.992188 17.5 0 28.949219 23.550781 52.5 52.5 52.5s52.5-23.550781 52.5-52.5c0-6.019531-1.023438-11.921875-2.992188-17.5h25.492188c4.140625 0 7.5-3.355469 7.5-7.5s-3.359375-7.5-7.5-7.5h-31.003906l-5.734375-43.296875c-1.632813-12.371094-12.28125-21.703125-24.761719-21.703125-4.859375 0-9.523438 1.394531-13.5 3.949219-3.980469-2.554688-8.644531-3.949219-13.5-3.949219-12.484375 0-23.128906 9.332031-24.765625 21.707031l-5.730469 43.292969h-31.003906c-4.140625 0-7.5 3.355469-7.5 7.5s3.359375 7.5 7.5 7.5zm112.5 17.5c0 20.675781-16.824219 37.5-37.5 37.5-20.679688 0-37.5-16.824219-37.5-37.5 0-6.160156 1.507812-12.128906 4.351562-17.5h66.296876c2.839843 5.371094 4.351562 11.339844 4.351562 17.5zm-51-82.5c2.992188 0 5.804688 1.328125 7.714844 3.640625 1.425781 1.726563 3.546875 2.722656 5.785156 2.722656 2.234375 0 4.355469-.996093 5.78125-2.722656 1.910156-2.3125 4.722656-3.640625 7.71875-3.640625 4.984375 0 9.238281 3.730469 9.894531 8.671875l1.5 11.34375h-49.792969l1.503907-11.34375c.652343-4.941406 4.90625-8.671875 9.894531-8.671875zm-13.382812 35.015625h53.765624l1.980469 14.984375h-57.726562zm0 0" fill="#f1e9e4"/><path d="m233 420c4.140625 0 7.5-3.359375 7.5-7.5v-113.007812c28.171875-3.6875 50-27.832032 50-56.992188 0-29.488281-22.3125-53.847656-50.9375-57.117188-3.144531-11.722656-13.859375-20.382812-26.5625-20.382812h-80c-12.5625 0-23.179688 8.472656-26.453125 20h-31.046875v-177.5c0-4.144531-3.359375-7.5-7.5-7.5s-7.5 3.355469-7.5 7.5v127.5h-52.5c-4.140625 0-7.5 3.355469-7.5 7.5 0 4.140625 3.359375 7.5 7.5 7.5h22.5v35h-7.5c-12.40625 0-22.5 10.09375-22.5 22.5s10.09375 22.5 22.5 22.5c-4.699219 6.269531-7.5 14.0625-7.5 22.5v45c0 4.140625 3.359375 7.5 7.5 7.5h30c4.140625 0 7.5-3.359375 7.5-7.5v-67.5h7.5c4.140625 0 7.5-3.359375 7.5-7.5v-22.5h30v212.5c0 4.140625 3.359375 7.5 7.5 7.5h22.5v69.09375l-24.871094 8.289062c-3.929687 1.308594-6.054687 5.558594-4.746094 9.488282 1.046876 3.140625 3.976563 5.128906 7.113282 5.128906.789062 0 1.585937-.125 2.375-.386719l30-10c3.0625-1.019531 5.128906-3.886719 5.128906-7.113281v-74.5h45v74.5c0 3.226562 2.0625 6.09375 5.125 7.113281l30 10c.789062.261719 1.585938.386719 2.375.386719 3.140625 0 6.066406-1.988281 7.113281-5.128906 1.308594-3.929688-.8125-8.179688-4.746093-9.488282l-24.871094-8.289062v-69.09375zm-172.5-270v65h-15v-65zm-45 57.5c0-4.136719 3.363281-7.5 7.5-7.5h7.5v15h-7.5c-4.136719 0-7.5-3.363281-7.5-7.5zm30 82.5h-15v-37.5c0-9.777344 6.269531-18.121094 15-21.214844zm230-47.5c0 20.875-15.132812 38.269531-35 41.824219v-83.648438c19.867188 3.554688 35 20.949219 35 41.824219zm-50-50v212.5h-15v-225h2.5c6.890625 0 12.5 5.605469 12.5 12.5zm-52.5 77.488281c4.140625 0 7.5-3.359375 7.5-7.5v-82.488281h15v105h-45v-105h15v82.488281c0 4.140625 3.355469 7.5 7.5 7.5zm-22.5 30.011719h45v22.488281c-6.472656 4.863281-14.34375 7.511719-22.5 7.511719s-16.03125-2.652344-22.5-7.511719zm-30 105v-212.5c0-6.894531 5.605469-12.5 12.5-12.5h2.5v225zm30 0v-65.078125c6.972656 3.3125 14.640625 5.078125 22.5 5.078125 7.855469 0 15.527344-1.765625 22.5-5.078125v65.078125zm0 0" fill="#f1e9e4"/></svg>
