<?xml version="1.0" encoding="iso-8859-1"?>
<!-- Generator: Adobe Illustrator 19.0.0, SVG Export Plug-In . SVG Version: 6.00 Build 0)  -->
<svg xmlns="http://www.w3.org/2000/svg" xmlns:xlink="http://www.w3.org/1999/xlink" version="1.1" id="Capa_1" x="0px" y="0px" viewBox="0 0 512 512" style="enable-background:new 0 0 512 512;" xml:space="preserve" width="512px" height="512px">
<g>
	<g>
		<path d="M320,117.333v32c0,35.346-28.654,64-64,64s-64-28.654-64-64v-32h-21.333v32c0.053,47.106,38.227,85.28,85.333,85.333    c47.106-0.053,85.28-38.227,85.333-85.333v-32H320z" fill="#f1e9e4"/>
	</g>
</g>
<g>
	<g>
		<path d="M256,0c-47.128,0-85.333,38.205-85.333,85.333v32H192v-32c0-35.346,28.654-64,64-64s64,28.654,64,64v32h21.333v-32    C341.333,38.205,303.128,0,256,0z" fill="#f1e9e4"/>
	</g>
</g>
<g>
	<g>
		<path d="M373.739,279.755l-75.072-38.933v-27.488h-21.333v33.984c0.004,3.982,2.225,7.63,5.76,9.461l80.821,41.888    c25.783,13.633,41.773,40.543,41.419,69.707v122.293H106.667V368.373c-0.355-29.163,15.635-56.074,41.419-69.707l80.821-41.888    c3.535-1.832,5.756-5.48,5.76-9.461v-33.984h-21.333v27.488l-75.072,38.933c-32.863,17.279-53.297,51.492-52.928,88.619v132.96    C85.333,507.224,90.109,512,96,512h320v0c5.891,0,10.667-4.776,10.667-10.667v-132.96    C427.036,331.246,406.602,297.033,373.739,279.755z" fill="#f1e9e4"/>
	</g>
</g>
<g>
	<g>
		<path d="M277.6,242.933L256,336.565l-21.6-93.632l-20.8,4.8l32,138.667c1.118,4.842,5.431,8.27,10.4,8.267    c4.969,0.003,9.282-3.425,10.4-8.267l32-138.667L277.6,242.933z" fill="#f1e9e4"/>
	</g>
</g>
<g>
	<g>
		<path d="M324.416,298.667l24.48-24.48l-15.083-15.083l-32,32c-4.164,4.165-4.164,10.917,0,15.083l13.184,13.184l-65.92,56.533    l13.867,16.192l74.667-64c0.206-0.176,0.405-0.361,0.596-0.552c4.166-4.165,4.166-10.919,0.001-15.085L324.416,298.667z" fill="#f1e9e4"/>
	</g>
</g>
<g>
	<g>
		<path d="M262.944,375.925l-65.92-56.533l13.184-13.184c4.164-4.165,4.164-10.917,0-15.083l-32-32l-15.083,15.083l24.459,24.459    l-13.792,13.803c-0.192,0.192-0.376,0.391-0.552,0.596c-3.836,4.471-3.321,11.205,1.15,15.041l70.944,60.8v112.427h21.333V384    C266.66,380.895,265.301,377.947,262.944,375.925z" fill="#f1e9e4"/>
	</g>
</g>
<g>
	<g>
		<rect x="234.667" y="266.667" width="42.667" height="21.333" fill="#f1e9e4"/>
	</g>
</g>
<g>
	<g>
		<rect x="138.667" y="426.667" width="21.333" height="74.667" fill="#f1e9e4"/>
	</g>
</g>
<g>
	<g>
		<rect x="352" y="426.667" width="21.333" height="74.667" fill="#f1e9e4"/>
	</g>
</g>
<g>
	<g>
		<rect x="138.667" y="106.667" width="234.667" height="21.333" fill="#f1e9e4"/>
	</g>
</g>
<g>
	<g>
		<path d="M256,42.667V64c11.782,0,21.333,9.551,21.333,21.333h21.333C298.667,61.769,279.564,42.667,256,42.667z" fill="#f1e9e4"/>
	</g>
</g>
<g>
	<g>
		<rect x="298.667" y="405.333" width="21.333" height="21.333" fill="#f1e9e4"/>
	</g>
</g>
<g>
	<g>
		<rect x="298.667" y="448" width="21.333" height="21.333" fill="#f1e9e4"/>
	</g>
</g>
<g>
	<g>
		<rect x="192" y="405.333" width="21.333" height="21.333" fill="#f1e9e4"/>
	</g>
</g>
<g>
	<g>
		<rect x="192" y="448" width="21.333" height="21.333" fill="#f1e9e4"/>
	</g>
</g>
<g>
</g>
<g>
</g>
<g>
</g>
<g>
</g>
<g>
</g>
<g>
</g>
<g>
</g>
<g>
</g>
<g>
</g>
<g>
</g>
<g>
</g>
<g>
</g>
<g>
</g>
<g>
</g>
<g>
</g>
</svg>
