<?xml version="1.0"?>
<svg xmlns="http://www.w3.org/2000/svg" height="512px" viewBox="0 0 480 480.23973" width="512px"><path d="m265.191406 232.863281c-2.957031-.488281-5.953125-.738281-8.953125-.742187h-32c-30.890625.085937-55.910156 25.105468-56 56v56c0 8.835937 7.164063 16 16 16h112c8.839844 0 16-7.164063 16-16v-56c.109375-27.507813-19.875-50.976563-47.046875-55.257813zm-13.121094 15.257813-11.832031 27.65625-11.832031-27.65625zm-67.832031 40c-.046875-17.324219 11.136719-32.683594 27.640625-37.953125l20.359375 47.59375v46.359375h-48zm112 56h-48v-46.402344l20.363281-47.589844c16.515626 5.273438 27.707032 20.652344 27.636719 37.992188zm0 0" fill="#f1e9e4"/><path d="m264.238281 280.121094h16v16h-16zm0 0" fill="#f1e9e4"/><path d="m280.238281 192.121094v-16c4.417969 0 8-3.582032 8-8v-8c-.023437-22.082032-17.917969-39.976563-40-40h-16c-22.078125.023437-39.972656 17.917968-40 40v8c0 4.417968 3.582031 8 8 8v16c0 22.089844 17.910157 40 40 40 22.09375 0 40-17.910156 40-40zm-48-56h16c13.257813 0 24 10.742187 24 24h-30.109375l-14.3125-7.160156c-3.082031-1.539063-6.800781-.933594-9.234375 1.503906l-5.65625 5.65625h-4.6875c0-13.257813 10.746094-24 24-24zm8 80c-13.253906 0-24-10.746094-24-24v-16c2.121094 0 4.15625-.84375 5.65625-2.34375l3.921875-3.921875 10.847656 5.425781c1.109376.550781 2.335938.839844 3.574219.839844h24v16c0 13.253906-10.742187 24-24 24zm0 0" fill="#f1e9e4"/><path d="m232.238281 62.984375v41.136719h16v-41.136719c15.605469-4.027344 25.777344-19.03125 23.746094-35.015625-2.03125-15.988281-15.628906-27.96875-31.746094-27.96875-16.113281 0-29.714843 11.980469-31.742187 27.96875-2.03125 15.984375 8.140625 30.988281 23.742187 35.015625zm8-46.863281c8.839844 0 16 7.164062 16 16 0 8.835937-7.160156 16-16 16-8.835937 0-16-7.164063-16-16 0-8.835938 7.164063-16 16-16zm0 0" fill="#f1e9e4"/><path d="m125.160156 93.039062c.023438-8.492187-3.351562-16.636718-9.375-22.625-12.660156-12.09375-32.59375-12.09375-45.25 0-11.472656 11.347657-12.671875 29.476563-2.792968 42.234376 9.875 12.761718 27.726562 16.144531 41.585937 7.878906l29.085937 29.089844 11.3125-11.320313-29.085937-29.089844c2.933594-4.882812 4.496094-10.46875 4.519531-16.167969zm-43.320312 11.3125c-6.25-6.246093-6.25-16.378906-.003906-22.628906 6.25-6.25 16.382812-6.25 22.628906 0 6.25 6.25 6.25 16.382813 0 22.628906-6.332032 6.046876-16.296875 6.046876-22.625 0zm0 0" fill="#f1e9e4"/><path d="m248.238281 417.257812v-41.136718h-16v41.136718c-15.601562 4.027344-25.773437 19.027344-23.742187 35.015626 2.027344 15.984374 15.628906 27.964843 31.742187 27.964843 16.117188 0 29.714844-11.980469 31.746094-27.964843 2.03125-15.988282-8.140625-30.988282-23.746094-35.015626zm-8 46.863282c-8.835937 0-16-7.164063-16-16 0-8.835938 7.164063-16 16-16 8.839844 0 16 7.164062 16 16 0 8.835937-7.160156 16-16 16zm0 0" fill="#f1e9e4"/><path d="m371.214844 359.785156-29.152344-29.160156-11.3125 11.320312 29.089844 29.085938c-8.382813 14.308594-4.417969 32.65625 9.128906 42.222656 13.550781 9.566406 32.164062 7.167969 42.84375-5.519531 10.679688-12.691406 9.867188-31.441406-1.867188-43.160156-10.453124-9.9375-26.171874-11.882813-38.730468-4.789063zm27.425781 38.734375c-6.332031 6.046875-16.296875 6.046875-22.625 0-6.25-6.246093-6.25-16.378906-.003906-22.628906 6.25-6.25 16.382812-6.25 22.628906 0 6.25 6.25 6.25 16.382813 0 22.628906zm0 0" fill="#f1e9e4"/><path d="m448.238281 208.121094c-14.546875.054687-27.226562 9.914062-30.863281 24h-41.136719v16h41.136719c4.1875 16.058594 19.972656 26.238281 36.332031 23.421875 16.355469-2.8125 27.832031-17.6875 26.40625-34.222657-1.425781-16.535156-15.277343-29.226562-31.875-29.199218zm0 48c-8.835937 0-16-7.164063-16-16 0-8.835938 7.164063-16 16-16 8.839844 0 16 7.164062 16 16 0 8.835937-7.160156 16-16 16zm0 0" fill="#f1e9e4"/><path d="m104.238281 248.121094v-16h-41.132812c-4.03125-15.605469-19.03125-25.777344-35.019531-23.746094-15.984376 2.03125-27.964844 15.628906-27.964844 31.746094 0 16.113281 11.980468 29.714844 27.964844 31.742187 15.988281 2.03125 30.988281-8.140625 35.019531-23.742187zm-72 8c-8.835937 0-16-7.164063-16-16 0-8.835938 7.164063-16 16-16 8.839844 0 16 7.164062 16 16 0 8.835937-7.160156 16-16 16zm0 0" fill="#f1e9e4"/><path d="m138.414062 330.625-29.148437 29.160156c-12.5625-7.089844-28.28125-5.140625-38.730469 4.796875-11.925781 11.738281-12.835937 30.671875-2.089844 43.5 10.746094 12.828125 29.542969 15.25 43.191407 5.5625 13.644531-9.683593 17.5625-28.226562 9.003906-42.605469l29.085937-29.085937zm-33.941406 67.894531c-6.332031 6.046875-16.296875 6.046875-22.625 0-6.25-6.246093-6.25-16.378906-.003906-22.628906 6.25-6.25 16.382812-6.25 22.628906 0 6.25 6.25 6.25 16.382813 0 22.628906zm0 0" fill="#f1e9e4"/><path d="m342.0625 149.617188 29.089844-29.089844c13.859375 8.1875 31.644531 4.78125 41.496094-7.949219 9.851562-12.726563 8.695312-30.796875-2.703126-42.164063-12.660156-12.09375-32.59375-12.09375-45.25 0-10.363281 10.269532-12.367187 26.289063-4.855468 38.792969l-29.089844 29.089844zm33.945312-67.898438c6.25-6.25 16.382813-6.25 22.632813 0s6.25 16.382812 0 22.632812c-6.332031 6.046876-16.296875 6.046876-22.625 0-6.246094-6.246093-6.246094-16.375 0-22.625zm0 0" fill="#f1e9e4"/></svg>
